<svg width="509" height="347" xmlns="http://www.w3.org/2000/svg">

 <g>
  <title>background</title>
  <rect fill="none" id="canvas_background" height="349" width="511" y="-1" x="-1"/>
 </g>
 <g>
  <title>Layer 1</title>
  <path id="svg_1" d="m510,24.625c0,-13.219 -10.75,-23.969 -23.938,-23.969l-464.14,0c-13.188,0 -23.922,10.75 -23.922,23.969l0,296.75c0,13.219 10.734,23.969 23.922,23.969l464.141,0c13.188,0 23.938,-10.75 23.938,-23.969l0,-296.75l-0.001,0zm-31.312,-5.719l-224.688,186.766l-224.703,-186.766l449.391,0zm13.093,308.188l-475.578,0l0,-295.375l163.141,135.578c40.328,33.531 68.172,56.672 68.844,57.234c3.328,2.75 8.344,2.719 11.594,0.016l232,-192.828l0,295.375l-0.001,0z"/>
 </g>
</svg>