<svg width="97" height="102" xmlns="http://www.w3.org/2000/svg">

 <g>
  <title>background</title>
  <rect fill="none" id="canvas_background" height="104" width="99" y="-1" x="-1"/>
 </g>
 <g>
  <title>Layer 1</title>
  <g id="svg_1">
   <path id="svg_2" fill="#000000" stroke-width="2" d="m18.8125,7a1.0001,1.0001 0 0 0 -0.8125,1l0,84a1.0001,1.0001 0 0 0 1,1l62,0a1.0001,1.0001 0 0 0 1,-1l0,-68a1.0001,1.0001 0 0 0 -0.28125,-0.71875l-16,-16a1.0001,1.0001 0 0 0 -0.71875,-0.28125l-46,0a1.0001,1.0001 0 0 0 -0.1875,0zm1.1875,2l44,0l0,15c0.00005,0.52358 0.47642,0.99995 1,1l15,0l0,66l-60,0l0,-82zm46,1.40625l12.59375,12.59375l-12.59375,0l0,-12.59375zm-27,6.59375c-3.30187,0 -6,2.69816 -6,6c0,3.30184 2.69813,6 6,6c3.30187,0 6,-2.69816 6,-6c0,-3.30184 -2.69813,-6 -6,-6zm0,2c2.22098,0 4,1.77904 4,4c0,2.22096 -1.77902,4 -4,4c-2.22098,0 -4,-1.77904 -4,-4c0,-2.22096 1.77902,-4 4,-4zm0,12c-6.5664,0 -12,4.88272 -12,11a1.0001,1.0001 0 0 0 1,1l22,0a1.0001,1.0001 0 0 0 1,-1c0,-6.11728 -5.4336,-11 -12,-11zm0,2c5.1853,0 9.21131,3.55211 9.78125,8l-19.5625,0c0.56994,-4.44789 4.59595,-8 9.78125,-8zm-11.1875,19a1.00438,1.00438 0 0 0 0.1875,2l44,0a1.0001,1.0001 0 1 0 0,-2l-44,0a1.0001,1.0001 0 0 0 -0.1875,0zm0,11a1.00438,1.00438 0 0 0 0.1875,2l44,0a1.0001,1.0001 0 1 0 0,-2l-44,0a1.0001,1.0001 0 0 0 -0.1875,0zm0,11a1.00438,1.00438 0 0 0 0.1875,2l44,0a1.0001,1.0001 0 1 0 0,-2l-44,0a1.0001,1.0001 0 0 0 -0.1875,0z"/>
  </g>
 </g>
</svg>